<svg xmlns="http://www.w3.org/2000/svg" xmlns:xlink="http://www.w3.org/1999/xlink" viewBox="0 0 772 250"><defs><clipPath id="a"><rect width="772" height="250" fill="none"/></clipPath></defs><rect width="772" height="250" fill="#00408a"/><g clip-path="url(#a)"><path d="M109.61,301.74c31.91,12.05,197.3,79.74,232.62,75.37a162.25,162.25,0,0,0,17.63-3.2c28.88-6.89,56.88-21.53,81.75-40.56,29.92-22.89,55.56-51.94,78.08-83,25.59-35.27,48-74.78,54.48-117,6.14-39.67-54.64-113.54-74.5-144.88C452.82-85.44,388.55-111.23,359-131.88,313.11-164,256.28-183.76,198.19-172.73c-38.37,7.28-75.4,27.78-106.44,55.5a324.56,324.56,0,0,0-35.3,37.12c-4.88,6-12.87,9.43-22.43,9.71L-2.22-69.3c-2.4,0-3.56,1.91-2.48,4.06L10-34.42c4.27,9-12.14,18-15.64,25.17-25,51.55-51.15,107.89-40.86,159.07,6.94,34.53,16.29,78.7,40.57,101.24S78.64,290,109.61,301.74Z" fill="#daf7f5"/></g><path d="M522.58,95.12l30.56,28.43a1.94,1.94,0,0,1,0,2.9l-30.56,28.43a1.39,1.39,0,0,1-2-.1L513,147.07a1.54,1.54,0,0,1,.09-2.21l14.46-12.53H487.6a1.49,1.49,0,0,1-1.45-1.45V119.12a1.49,1.49,0,0,1,1.45-1.45h39.9L513,105.14a1.54,1.54,0,0,1-.09-2.21l7.61-7.71A1.39,1.39,0,0,1,522.58,95.12Z" fill="#a2bcb8"/><text transform="translate(60.87 146.84)" font-size="69.5" fill="#00408a" font-family="OpenSans-Extrabold, Open Sans" font-weight="800">FIO</text><text transform="translate(611.62 146.84)" font-size="69.5" fill="#fff" font-family="OpenSans-Extrabold, Open Sans" font-weight="800">WP</text><line x1="208.54" y1="69.92" x2="397.81" y2="69.92" fill="none" stroke="#00408a" stroke-linecap="round" stroke-miterlimit="10" stroke-width="8"/><line x1="208.54" y1="97.46" x2="397.81" y2="97.46" fill="none" stroke="#00408a" stroke-linecap="round" stroke-miterlimit="10" stroke-width="8"/><line x1="208.54" y1="125" x2="397.81" y2="125" fill="none" stroke="#00408a" stroke-linecap="round" stroke-miterlimit="10" stroke-width="8"/><line x1="208.54" y1="152.54" x2="397.81" y2="152.54" fill="none" stroke="#00408a" stroke-linecap="round" stroke-miterlimit="10" stroke-width="8"/><line x1="208.54" y1="180.08" x2="397.81" y2="180.08" fill="none" stroke="#00408a" stroke-linecap="round" stroke-miterlimit="10" stroke-width="8"/><line x1="420.64" y1="69.92" x2="452.03" y2="69.92" fill="none" stroke="#00408a" stroke-linecap="round" stroke-miterlimit="10" stroke-width="8"/><line x1="420.64" y1="97.46" x2="452.03" y2="97.46" fill="none" stroke="#00408a" stroke-linecap="round" stroke-miterlimit="10" stroke-width="8"/><line x1="420.64" y1="125" x2="452.03" y2="125" fill="none" stroke="#00408a" stroke-linecap="round" stroke-miterlimit="10" stroke-width="8"/><line x1="420.64" y1="152.54" x2="452.03" y2="152.54" fill="none" stroke="#00408a" stroke-linecap="round" stroke-miterlimit="10" stroke-width="8"/><line x1="420.64" y1="180.08" x2="452.03" y2="180.08" fill="none" stroke="#00408a" stroke-linecap="round" stroke-miterlimit="10" stroke-width="8"/></svg>
