<svg xmlns="http://www.w3.org/2000/svg" xmlns:xlink="http://www.w3.org/1999/xlink" viewBox="0 0 128 128"><defs><clipPath id="a"><rect width="128" height="128" fill="none"/></clipPath></defs><g clip-path="url(#a)"><path d="M154.74-104.85C124.14-99,21.67-89-3.78-68.76A149.28,149.28,0,0,0-16-57.87C-35.22-38.77-50.08-14-60.4,12.63-72.82,44.7-79,79.54-81.76,114.44c-3.16,39.67-1.79,81.11,13.2,117.09C-54.46,265.36-29,292.1.33,309.13S134.37,334,167.2,336C218.25,339.18,272,327.56,312,291.33c26.44-23.94,45.54-57.53,56.54-93.9a296.43,296.43,0,0,0,9.84-45.72c1-7,5.54-13.47,12.86-18.25l27.72-18.09a2.39,2.39,0,0,0,0-4.35L392.84,94c-7.6-5-12.25-11.76-12.95-19-5-52.09-22.62-102.42-55-137.41-21.84-23.6-50.65-37.87-80.29-43.88S184.44-110.47,154.74-104.85Z" fill="#00408a"/><path d="M-4.25,59.49c44.5,58.5,144.54,22.74,150.51-8,7.88-40.69,68.36-37.64,94.16-66,29.32-32.25,55.9-69.06,67-110.28,10.46-38.76,8.62-80-7.67-113.39-38.44-78.65-99.48-111.34-126.56-135.11-42.1-36.95-96.41-62.87-155.36-58.3-38.94,3-78,19.32-111.9,43.46a325.77,325.77,0,0,0-39.17,33c-5.5,5.41-13.82,8-23.36,7.19l-36.14-2.9c-2.39-.24-3.75,1.52-2.91,3.77l11.19,32.24c3.26,9.39,2.73,18.39-1.53,25.16-30.57,48.48-49,103.88-44.45,155.89,3.1,35.08,7.53,80,29.19,105.08S-24.3,33.14-4.25,59.49Z" fill="#daf7f5"/></g><text transform="translate(43.95 118.75)" font-size="24" fill="#fff" font-family="OpenSans-Extrabold, Open Sans" font-weight="800">WP</text><text transform="translate(27.36 48.87)" font-size="43.51" fill="#00408a" font-family="OpenSans-Extrabold, Open Sans" font-weight="800">FIO</text><path d="M73.87,73.28l-9.39,10.1a.65.65,0,0,1-1,0l-9.39-10.1a.47.47,0,0,1,0-.67l2.55-2.51a.51.51,0,0,1,.73,0l4.14,4.78V61.72a.48.48,0,0,1,.48-.47h3.88a.48.48,0,0,1,.48.47V74.91l4.14-4.78a.51.51,0,0,1,.73,0l2.55,2.51A.47.47,0,0,1,73.87,73.28Z" fill="#a2bcb8"/></svg>